# Blender 3.3.1
# www.blender.org
mtllib robot.mtl
o Cube
v 1.000000 3.768657 -1.000000
v 1.000000 1.768657 -1.000000
v 1.000000 3.768657 1.000000
v 1.000000 1.768657 1.000000
v -1.000000 3.768657 -1.000000
v -1.000000 1.768657 -1.000000
v -1.000000 3.768657 1.000000
v -1.000000 1.768657 1.000000
v 1.192884 1.110991 -1.192884
v 1.192884 1.110991 1.192884
v -1.192884 1.110991 -1.192884
v -1.192884 1.110991 1.192884
v 1.192884 0.560631 -1.192884
v 1.192884 0.560631 1.192884
v -1.192884 0.560631 -1.192884
v -1.192884 0.560631 1.192884
v 1.000000 -0.044535 -1.000000
v 1.000000 -0.044535 1.000000
v -1.000000 -0.044535 -1.000000
v -1.000000 -0.044535 1.000000
vn -0.0000 1.0000 -0.0000
vn -0.0000 -0.0000 1.0000
vn -1.0000 -0.0000 -0.0000
vn -0.0000 0.2814 -0.9596
vn 1.0000 -0.0000 -0.0000
vn -0.0000 -0.0000 -1.0000
vn -0.0000 0.2814 0.9596
vn -0.9596 0.2814 -0.0000
vn 0.9596 0.2814 -0.0000
vn -0.9528 -0.3037 -0.0000
vn -0.0000 -1.0000 -0.0000
vn 0.9528 -0.3037 -0.0000
vn -0.0000 -0.3037 -0.9528
vn -0.0000 -0.3037 0.9528
vt 0.625000 0.500000
vt 0.375000 0.500000
vt 0.625000 0.750000
vt 0.375000 0.750000
vt 0.875000 0.500000
vt 0.625000 0.250000
vt 0.375000 0.250000
vt 0.875000 0.750000
vt 0.625000 1.000000
vt 0.625000 0.000000
vt 0.375000 1.000000
vt 0.375000 0.000000
vt 0.375000 0.500000
vt 0.375000 0.750000
vt 0.375000 0.250000
vt 0.375000 1.000000
vt 0.375000 0.000000
vt 0.375000 0.500000
vt 0.375000 0.750000
vt 0.375000 0.250000
vt 0.375000 0.000000
vt 0.375000 1.000000
vt 0.375000 0.500000
vt 0.375000 0.750000
vt 0.125000 0.500000
vt 0.375000 0.250000
vt 0.375000 0.000000
vt 0.125000 0.750000
vt 0.375000 1.000000
s 0
usemtl Material
f 1/1/1 5/5/1 7/8/1 3/3/1
f 4/4/2 3/3/2 7/9/2 8/11/2
f 8/12/3 7/10/3 5/6/3 6/7/3
f 6/7/4 2/2/4 9/13/4 11/15/4
f 2/2/5 1/1/5 3/3/5 4/4/5
f 6/7/6 5/6/6 1/1/6 2/2/6
f 10/14/2 12/16/2 16/22/2 14/19/2
f 4/4/7 8/11/7 12/16/7 10/14/7
f 8/12/8 6/7/8 11/15/8 12/17/8
f 2/2/9 4/4/9 10/14/9 9/13/9
f 16/21/10 15/20/10 19/26/10 20/27/10
f 12/17/3 11/15/3 15/20/3 16/21/3
f 9/13/5 10/14/5 14/19/5 13/18/5
f 11/15/6 9/13/6 13/18/6 15/20/6
f 19/25/11 17/23/11 18/24/11 20/28/11
f 13/18/12 14/19/12 18/24/12 17/23/12
f 15/20/13 13/18/13 17/23/13 19/26/13
f 14/19/14 16/22/14 20/29/14 18/24/14
o 立方体
v -0.684960 0.596793 1.985680
v -0.684960 1.669577 1.985680
v -0.684960 0.596793 -1.985680
v -0.684960 1.669577 -1.985680
v 0.684960 0.596793 1.985680
v 0.684960 1.669577 1.985680
v 0.684960 0.596793 -1.985680
v 0.684960 1.669577 -1.985680
vn -1.0000 -0.0000 -0.0000
vn -0.0000 -0.0000 -1.0000
vn 1.0000 -0.0000 -0.0000
vn -0.0000 -0.0000 1.0000
vn -0.0000 -1.0000 -0.0000
vn -0.0000 1.0000 -0.0000
vt 0.375000 0.000000
vt 0.375000 1.000000
vt 0.125000 0.750000
vt 0.625000 0.000000
vt 0.625000 1.000000
vt 0.875000 0.750000
vt 0.375000 0.250000
vt 0.125000 0.500000
vt 0.625000 0.250000
vt 0.875000 0.500000
vt 0.375000 0.750000
vt 0.625000 0.750000
vt 0.375000 0.500000
vt 0.625000 0.500000
s 0
f 21/30/15 22/33/15 24/38/15 23/36/15
f 23/36/16 24/38/16 28/43/16 27/42/16
f 27/42/17 28/43/17 26/41/17 25/40/17
f 25/40/18 26/41/18 22/34/18 21/31/18
f 23/37/19 27/42/19 25/40/19 21/32/19
f 28/43/20 24/39/20 22/35/20 26/41/20
o 立方体.001
v -0.121300 -1.248588 1.691928
v -0.121300 0.645119 1.691928
v -0.312102 -1.248588 1.423877
v -0.312102 0.645119 1.423877
v 1.492625 -1.248588 0.543112
v 0.170609 -0.913100 1.484143
v 1.301822 -1.248588 0.275061
v -0.020194 -0.913100 1.216092
v -0.020194 -1.248588 1.216092
v -0.020194 0.645119 1.216092
v 0.170609 -1.248588 1.484143
v 0.170609 0.645119 1.484143
v -0.121300 -0.913100 1.691928
v -0.312102 -0.913100 1.423877
v 1.301822 -0.913100 0.275061
v 1.492625 -0.913100 0.543112
vn -0.8147 -0.0000 0.5799
vn -0.0000 1.0000 -0.0000
vn 0.5799 -0.0000 0.8147
vn -0.0000 -1.0000 -0.0000
vn 0.8147 -0.0000 -0.5799
vn -0.5799 -0.0000 -0.8147
vt 0.125000 0.750000
vt 0.375000 1.000000
vt 0.375000 0.000000
vt 0.625000 0.000000
vt 0.625000 1.000000
vt 0.875000 0.750000
vt 0.125000 0.500000
vt 0.375000 0.250000
vt 0.875000 0.500000
vt 0.625000 0.250000
vt 0.375000 0.750000
vt 0.625000 0.750000
vt 0.500000 0.875000
vt 0.375000 0.500000
vt 0.625000 0.500000
vt 0.500000 0.375000
vt 0.250000 0.500000
vt 0.375000 0.375000
vt 0.750000 0.500000
vt 0.625000 0.375000
vt 0.250000 0.750000
vt 0.375000 0.875000
vt 0.625000 0.875000
vt 0.750000 0.750000
vt 0.500000 1.000000
vt 0.500000 0.000000
vt 0.500000 0.250000
vt 0.500000 0.500000
vt 0.500000 0.750000
s 0
f 41/69/21 30/47/21 32/53/21 42/70/21
f 43/71/22 36/58/22 34/55/22 44/72/22
f 34/56/23 40/66/23 30/48/23 41/68/23
f 37/60/24 35/57/24 33/54/24 39/64/24
f 38/62/22 32/52/22 30/49/22 40/67/22
f 36/58/25 38/62/25 40/67/25 34/55/25
f 31/50/24 37/60/24 39/64/24 29/44/24
f 42/70/26 32/53/26 38/63/26 36/59/26
f 31/51/26 42/70/26 36/59/26 37/61/26
f 33/54/23 44/72/23 34/56/23 39/65/23
f 39/65/23 34/56/23 41/68/23 29/45/23
f 35/57/25 43/71/25 44/72/25 33/54/25
f 37/61/26 36/59/26 43/71/26 35/57/26
f 29/46/21 41/69/21 42/70/21 31/51/21
o 立方体.002
v -0.121300 -1.248588 -1.701491
v -0.121300 0.645119 -1.701491
v -0.312102 -1.248588 -1.433440
v -0.312102 0.645119 -1.433440
v 1.492625 -1.248588 -0.552675
v 0.170609 -0.913100 -1.493706
v 1.301822 -1.248588 -0.284624
v -0.020194 -0.913100 -1.225655
v -0.020194 -1.248588 -1.225655
v -0.020194 0.645119 -1.225655
v 0.170609 -1.248588 -1.493706
v 0.170609 0.645119 -1.493706
v -0.121300 -0.913100 -1.701491
v -0.312102 -0.913100 -1.433440
v 1.301822 -0.913100 -0.284624
v 1.492625 -0.913100 -0.552675
vn -0.8147 -0.0000 -0.5799
vn -0.0000 1.0000 -0.0000
vn 0.5799 -0.0000 -0.8147
vn -0.0000 -1.0000 -0.0000
vn 0.8147 -0.0000 0.5799
vn -0.5799 -0.0000 0.8147
vt 0.125000 0.750000
vt 0.375000 1.000000
vt 0.375000 0.000000
vt 0.625000 0.000000
vt 0.625000 1.000000
vt 0.875000 0.750000
vt 0.125000 0.500000
vt 0.375000 0.250000
vt 0.875000 0.500000
vt 0.625000 0.250000
vt 0.375000 0.750000
vt 0.625000 0.750000
vt 0.500000 0.875000
vt 0.375000 0.500000
vt 0.625000 0.500000
vt 0.500000 0.375000
vt 0.250000 0.500000
vt 0.375000 0.375000
vt 0.750000 0.500000
vt 0.625000 0.375000
vt 0.250000 0.750000
vt 0.375000 0.875000
vt 0.625000 0.875000
vt 0.750000 0.750000
vt 0.500000 1.000000
vt 0.500000 0.000000
vt 0.500000 0.250000
vt 0.500000 0.500000
vt 0.500000 0.750000
s 0
f 57/98/27 58/99/27 48/82/27 46/76/27
f 59/100/28 60/101/28 50/84/28 52/87/28
f 50/85/29 57/97/29 46/77/29 56/95/29
f 53/89/30 55/93/30 49/83/30 51/86/30
f 54/91/28 56/96/28 46/78/28 48/81/28
f 52/87/31 50/84/31 56/96/31 54/91/31
f 47/79/30 45/73/30 55/93/30 53/89/30
f 58/99/32 52/88/32 54/92/32 48/82/32
f 47/80/32 53/90/32 52/88/32 58/99/32
f 49/83/29 55/94/29 50/85/29 60/101/29
f 55/94/29 45/74/29 57/97/29 50/85/29
f 51/86/31 49/83/31 60/101/31 59/100/31
f 53/90/32 51/86/32 59/100/32 52/88/32
f 45/75/27 47/80/27 58/99/27 57/98/27
o 立方体.003
v 0.516749 -1.533916 0.449423
v 0.516749 -0.655392 0.449423
v 0.516749 -1.533916 -0.449423
v 0.516749 -0.655392 -0.449423
v 2.960494 -1.533916 0.449423
v 2.960494 -0.655392 0.449423
v 2.960494 -1.533916 -0.449423
v 2.960494 -0.655392 -0.449423
vn -1.0000 -0.0000 -0.0000
vn -0.0000 -0.0000 -1.0000
vn 1.0000 -0.0000 -0.0000
vn -0.0000 -0.0000 1.0000
vn -0.0000 -1.0000 -0.0000
vn -0.0000 1.0000 -0.0000
vt 0.375000 0.000000
vt 0.375000 1.000000
vt 0.125000 0.750000
vt 0.625000 0.000000
vt 0.625000 1.000000
vt 0.875000 0.750000
vt 0.375000 0.250000
vt 0.125000 0.500000
vt 0.625000 0.250000
vt 0.875000 0.500000
vt 0.375000 0.750000
vt 0.625000 0.750000
vt 0.375000 0.500000
vt 0.625000 0.500000
s 0
f 61/102/33 62/105/33 64/110/33 63/108/33
f 63/108/34 64/110/34 68/115/34 67/114/34
f 67/114/35 68/115/35 66/113/35 65/112/35
f 65/112/36 66/113/36 62/106/36 61/103/36
f 63/109/37 67/114/37 65/112/37 61/104/37
f 68/115/38 64/111/38 62/107/38 66/113/38
o 立方体.004
v 3.003841 -0.848868 0.245786
v 4.473402 -0.925348 0.169305
v 3.003841 -0.848868 -0.245786
v 4.473402 -0.925348 -0.169305
v 3.003841 -1.340440 0.245786
v 4.473402 -1.263959 0.169305
v 3.003841 -1.340440 -0.245786
v 4.473402 -1.263959 -0.169305
v 4.473402 -0.848868 0.245786
v 4.473402 -0.848868 -0.245786
v 4.473402 -1.340440 -0.245786
v 4.473402 -1.340440 0.245786
v 3.738359 -0.925348 0.169305
v 3.738359 -0.925348 -0.169305
v 3.738359 -1.263959 0.169305
v 3.738359 -1.263959 -0.169305
vn -0.0000 1.0000 -0.0000
vn -0.0000 -0.0000 -1.0000
vn -0.0000 -1.0000 -0.0000
vn -0.0000 -0.0000 1.0000
vn -1.0000 -0.0000 -0.0000
vn 1.0000 -0.0000 -0.0000
vt 0.375000 0.000000
vt 0.375000 1.000000
vt 0.125000 0.750000
vt 0.836104 0.711104
vt 0.375000 0.250000
vt 0.125000 0.500000
vt 0.836104 0.538896
vt 0.375000 0.750000
vt 0.663896 0.711104
vt 0.375000 0.500000
vt 0.663896 0.538896
vt 0.625000 0.000000
vt 0.625000 1.000000
vt 0.875000 0.750000
vt 0.625000 0.250000
vt 0.875000 0.500000
vt 0.625000 0.500000
vt 0.625000 0.750000
vt 0.836104 0.711104
vt 0.836104 0.538896
vt 0.663896 0.711104
vt 0.663896 0.538896
s 0
f 69/116/39 77/127/39 78/130/39 71/120/39
f 71/120/40 78/130/40 79/132/40 75/125/40
f 75/125/41 79/132/41 80/133/41 73/123/41
f 73/123/42 80/133/42 77/128/42 69/117/42
f 71/121/43 75/125/43 73/123/43 69/118/43
f 70/119/40 74/124/40 83/136/40 81/134/40
f 70/119/44 72/122/44 78/131/44 77/129/44
f 72/122/44 76/126/44 79/132/44 78/131/44
f 76/126/44 74/124/44 80/133/44 79/132/44
f 74/124/44 70/119/44 77/129/44 80/133/44
f 84/137/44 82/135/44 81/134/44 83/136/44
f 76/126/42 72/122/42 82/135/42 84/137/42
f 74/124/39 76/126/39 84/137/39 83/136/39
f 72/122/41 70/119/41 81/134/41 82/135/41
