# Blender 3.3.0
# www.blender.org
mtllib boostFX.mtl
o 立方体.001
v 0.038925 0.476597 3.477784
v 0.040144 1.852558 3.477784
v 1.459387 0.476671 3.477784
v 1.460548 1.852632 3.477784
v 0.749359 0.466018 3.782080
v 0.749359 1.865429 3.782080
v 0.028142 1.163506 3.782080
v 1.472144 1.163506 3.782080
v 0.749618 1.163825 4.574835
v 0.221941 1.522583 4.041514
v 1.329560 1.522583 4.041514
v 0.749359 1.678567 4.320093
v 1.298511 0.804429 4.041514
v 0.749359 0.648764 4.320273
v 0.189340 0.804429 4.041514
v 0.378507 1.737180 4.041514
v 0.378507 0.647142 4.041514
v 0.218172 1.163506 4.320511
v 0.372037 1.530261 4.300491
v 0.371305 0.798037 4.300491
v 1.120212 0.649118 4.041514
v 1.120212 1.739156 4.041514
v 1.280805 1.163506 4.320370
v 1.127866 1.530306 4.300491
v 1.127169 0.798081 4.300491
v 0.749618 1.329348 4.528709
v 0.749618 1.009046 4.535131
v 0.605341 1.163825 4.543088
v 0.902611 1.163825 4.538043
vn -0.6007 0.6319 0.4899
vn 0.1834 0.8812 0.4358
vn 0.3616 -0.3726 0.8547
vn -0.8790 -0.2465 0.4081
vn 0.3606 0.3717 0.8555
vn -0.8790 0.2983 0.3720
vn -0.3602 -0.8103 0.4621
vn 0.2768 -0.8880 0.3671
vn -0.2737 -0.8881 0.3692
vn -0.2074 0.2626 0.9424
vn -0.3616 -0.3726 0.8546
vn -0.1867 0.8814 0.4340
vn 0.3497 -0.8161 0.4600
vn 0.8768 0.2150 0.4301
vn 0.8784 -0.2654 0.3975
vn 0.6517 0.5788 0.4903
vn -0.7096 -0.5101 0.4860
vn -0.8175 0.3417 0.4637
vn 0.6021 0.6301 0.4903
vn 0.7447 -0.4624 0.4813
vn 0.2269 -0.2420 0.9434
vn -0.3612 0.3723 0.8549
vn -0.2085 -0.2430 0.9474
vn 0.2257 0.2615 0.9384
vt 0.375000 1.000000
vt 0.625000 1.000000
vt 0.375000 0.750000
vt 0.625000 0.750000
vt 0.375000 0.875000
vt 0.625000 0.875000
vt 0.500000 1.000000
vt 0.500000 0.750000
vt 0.500000 0.875000
vt 0.562500 1.000000
vt 0.562500 0.750000
vt 0.562500 0.875000
vt 0.437500 0.750000
vt 0.437500 0.875000
vt 0.437500 1.000000
vt 0.625000 0.937500
vt 0.375000 0.937500
vt 0.500000 0.937500
vt 0.562500 0.937500
vt 0.437500 0.937500
vt 0.375000 0.812500
vt 0.625000 0.812500
vt 0.500000 0.812500
vt 0.562500 0.812500
vt 0.437500 0.812500
vt 0.520088 0.875000
vt 0.481411 0.875000
vt 0.500000 0.891612
vt 0.500000 0.857210
s 0
f 19/19/1 16/16/1 2/2/1
f 24/24/2 22/22/2 6/6/2 12/12/2
f 25/25/3 23/23/3 29/29/3 27/27/3 14/14/3
f 20/20/4 18/18/4 7/7/4 15/15/4
f 23/23/5 24/24/5 12/12/5 26/26/5 29/29/5
f 18/18/6 19/19/6 10/10/6 7/7/6
f 17/17/7 20/20/7 1/1/7
f 21/21/8 25/25/8 14/14/8 5/5/8
f 5/5/9 14/14/9 20/20/9 17/17/9
f 9/9/10 26/26/10 28/28/10
f 14/14/11 27/27/11 28/28/11 18/18/11 20/20/11
f 12/12/12 6/6/12 16/16/12 19/19/12
f 3/3/13 25/25/13 21/21/13
f 8/8/14 11/11/14 24/24/14 23/23/14
f 13/13/15 8/8/15 23/23/15 25/25/15
f 11/11/16 4/4/16 24/24/16
f 1/1/17 20/20/17 15/15/17
f 2/2/18 10/10/18 19/19/18
f 24/24/19 4/4/19 22/22/19
f 25/25/20 3/3/20 13/13/20
f 27/27/21 29/29/21 9/9/21
f 28/28/22 26/26/22 12/12/22 19/19/22 18/18/22
f 28/28/23 27/27/23 9/9/23
f 29/29/24 26/26/24 9/9/24
