# Blender 3.3.0
# www.blender.org
mtllib white ring.mtl
o 柱体
v 1.265467 1.258579 -1.393504
v 1.268331 1.040383 -1.372012
v 1.271086 0.830572 -1.308361
v 1.273624 0.637209 -1.204997
v 1.275849 0.467725 -1.065893
v 1.277675 0.328633 -0.896395
v 1.279032 0.225279 -0.703015
v 1.279868 0.161633 -0.493186
v 1.280150 0.140143 -0.274971
v 1.279868 0.161633 -0.056756
v 1.279032 0.225279 0.153073
v 1.277675 0.328633 0.346453
v 1.275849 0.467725 0.515951
v 1.273624 0.637209 0.655055
v 1.271086 0.830572 0.758419
v 1.268331 1.040383 0.822070
v 1.265467 1.258579 0.843562
v 1.262602 1.476776 0.822070
v 1.259848 1.686587 0.758419
v 1.257310 1.879950 0.655055
v 1.255085 2.049434 0.515951
v 1.253259 2.188526 0.346453
v 1.251902 2.291880 0.153073
v 1.251066 2.355525 -0.056756
v 1.250784 2.377016 -0.274971
v 1.251066 2.355525 -0.493186
v 1.251902 2.291880 -0.703015
v 1.253259 2.188526 -0.896395
v 1.255085 2.049434 -1.065893
v 1.257310 1.879950 -1.204997
v 1.259848 1.686587 -1.308361
v 1.262602 1.476776 -1.372012
v 1.267777 1.082621 -1.159648
v 1.265467 1.258579 -1.176980
v 1.269998 0.913425 -1.108318
v 1.272045 0.757493 -1.024964
v 1.273839 0.620818 -0.912787
v 1.275312 0.508651 -0.776100
v 1.276406 0.425304 -0.620155
v 1.277080 0.373979 -0.450944
v 1.277307 0.356649 -0.274971
v 1.277080 0.373979 -0.098998
v 1.276406 0.425304 0.070213
v 1.275312 0.508651 0.226158
v 1.273839 0.620818 0.362845
v 1.272045 0.757493 0.475022
v 1.269998 0.913425 0.558376
v 1.267777 1.082621 0.609706
v 1.265467 1.258579 0.627038
v 1.263157 1.434537 0.609706
v 1.260936 1.603734 0.558376
v 1.258889 1.759665 0.475022
v 1.257095 1.896341 0.362845
v 1.255622 2.008508 0.226158
v 1.254528 2.091855 0.070213
v 1.253854 2.143180 -0.098998
v 1.253626 2.160510 -0.274971
v 1.253854 2.143180 -0.450944
v 1.254528 2.091855 -0.620155
v 1.255622 2.008508 -0.776100
v 1.257095 1.896341 -0.912787
v 1.258889 1.759665 -1.024964
v 1.260936 1.603734 -1.108318
v 1.263157 1.434537 -1.159648
vn 0.9999 0.0131 -0.0000
vt 0.250000 0.490000
vt 0.296822 0.485388
vt 0.341844 0.471731
vt 0.383337 0.449553
vt 0.419706 0.419706
vt 0.449553 0.383337
vt 0.471731 0.341844
vt 0.485388 0.296822
vt 0.490000 0.250000
vt 0.485388 0.203178
vt 0.471731 0.158156
vt 0.449553 0.116663
vt 0.419706 0.080294
vt 0.383337 0.050447
vt 0.341844 0.028269
vt 0.296822 0.014612
vt 0.250000 0.010000
vt 0.203178 0.014612
vt 0.158156 0.028269
vt 0.116663 0.050447
vt 0.080294 0.080294
vt 0.050447 0.116663
vt 0.028269 0.158156
vt 0.014612 0.203178
vt 0.010000 0.250000
vt 0.014612 0.296822
vt 0.028269 0.341844
vt 0.050447 0.383337
vt 0.080294 0.419706
vt 0.116663 0.449553
vt 0.158156 0.471731
vt 0.203178 0.485388
vt 0.287758 0.439822
vt 0.250000 0.443541
vt 0.324065 0.428809
vt 0.357526 0.410923
vt 0.386854 0.386854
vt 0.410924 0.357526
vt 0.428809 0.324065
vt 0.439822 0.287758
vt 0.443541 0.250000
vt 0.439822 0.212242
vt 0.428809 0.175935
vt 0.410923 0.142474
vt 0.386854 0.113146
vt 0.357526 0.089077
vt 0.324065 0.071191
vt 0.287758 0.060178
vt 0.250000 0.056459
vt 0.212242 0.060178
vt 0.175935 0.071191
vt 0.142474 0.089077
vt 0.113146 0.113146
vt 0.089077 0.142474
vt 0.071191 0.175935
vt 0.060178 0.212242
vt 0.056459 0.250000
vt 0.060178 0.287758
vt 0.071191 0.324065
vt 0.089077 0.357526
vt 0.113146 0.386854
vt 0.142474 0.410924
vt 0.175935 0.428809
vt 0.212242 0.439822
s 0
f 34/34/1 33/33/1 2/2/1 1/1/1
f 33/33/1 35/35/1 3/3/1 2/2/1
f 35/35/1 36/36/1 4/4/1 3/3/1
f 36/36/1 37/37/1 5/5/1 4/4/1
f 37/37/1 38/38/1 6/6/1 5/5/1
f 38/38/1 39/39/1 7/7/1 6/6/1
f 39/39/1 40/40/1 8/8/1 7/7/1
f 40/40/1 41/41/1 9/9/1 8/8/1
f 41/41/1 42/42/1 10/10/1 9/9/1
f 42/42/1 43/43/1 11/11/1 10/10/1
f 43/43/1 44/44/1 12/12/1 11/11/1
f 44/44/1 45/45/1 13/13/1 12/12/1
f 45/45/1 46/46/1 14/14/1 13/13/1
f 46/46/1 47/47/1 15/15/1 14/14/1
f 47/47/1 48/48/1 16/16/1 15/15/1
f 48/48/1 49/49/1 17/17/1 16/16/1
f 49/49/1 50/50/1 18/18/1 17/17/1
f 50/50/1 51/51/1 19/19/1 18/18/1
f 51/51/1 52/52/1 20/20/1 19/19/1
f 52/52/1 53/53/1 21/21/1 20/20/1
f 53/53/1 54/54/1 22/22/1 21/21/1
f 54/54/1 55/55/1 23/23/1 22/22/1
f 55/55/1 56/56/1 24/24/1 23/23/1
f 56/56/1 57/57/1 25/25/1 24/24/1
f 57/57/1 58/58/1 26/26/1 25/25/1
f 58/58/1 59/59/1 27/27/1 26/26/1
f 59/59/1 60/60/1 28/28/1 27/27/1
f 60/60/1 61/61/1 29/29/1 28/28/1
f 61/61/1 62/62/1 30/30/1 29/29/1
f 62/62/1 63/63/1 31/31/1 30/30/1
f 63/63/1 64/64/1 32/32/1 31/31/1
f 64/64/1 34/34/1 1/1/1 32/32/1
